<svg xmlns:dc="http://purl.org/dc/elements/1.1/" xmlns:cc="http://creativecommons.org/ns#" xmlns:rdf="http://www.w3.org/1999/02/22-rdf-syntax-ns#" xmlns:svg="http://www.w3.org/2000/svg" xmlns="http://www.w3.org/2000/svg" xmlns:sodipodi="http://sodipodi.sourceforge.net/DTD/sodipodi-0.dtd" xmlns:inkscape="http://www.inkscape.org/namespaces/inkscape" width="90.984024" height="97.99984" id="svg2" version="1.1" inkscape:version="0.48.2 r9819" sodipodi:docname="playing cards.svg">
  <defs id="defs4"/>
  <sodipodi:namedview id="base" pagecolor="#ffffff" bordercolor="#666666" borderopacity="1.0" inkscape:pageopacity="0.0" inkscape:pageshadow="2" inkscape:zoom="5.6" inkscape:cx="111.39086" inkscape:cy="43.923364" inkscape:document-units="px" inkscape:current-layer="layer1" showgrid="false" fit-margin-top="0" fit-margin-left="0" fit-margin-right="0" fit-margin-bottom="0" inkscape:window-width="1920" inkscape:window-height="1056" inkscape:window-x="0" inkscape:window-y="24" inkscape:window-maximized="1"/>
  <metadata id="metadata7">
    <rdf:RDF>
      <cc:Work rdf:about="">
        <dc:format>image/svg+xml</dc:format>
        <dc:type rdf:resource="http://purl.org/dc/dcmitype/StillImage"/>
        <dc:title/>
      </cc:Work>
    </rdf:RDF>
  </metadata>
  <g inkscape:label="Layer 1" inkscape:groupmode="layer" id="layer1" transform="translate(1572.7881,-718.09392)">
    <path style="font-size:medium;font-style:normal;font-variant:normal;font-weight:normal;font-stretch:normal;text-indent:0;text-align:start;text-decoration:none;line-height:normal;letter-spacing:normal;word-spacing:normal;text-transform:none;direction:ltr;block-progression:tb;writing-mode:lr-tb;text-anchor:start;baseline-shift:baseline;color:#000000;fill:#000000;fill-opacity:1;fill-rule:nonzero;stroke:none;stroke-width:18;marker:none;visibility:visible;display:inline;overflow:visible;enable-background:accumulate;font-family:Sans;-inkscape-font-specification:Sans" d="m -1527.3621,718.09489 a 1.4337194,1.4337194 0 0 0 -1.299,0.96642 l -16.8594,2.29669 -0.4226,-0.70036 a 1.4337194,1.4337194 0 0 0 -1.1855,-0.68862 1.4337194,1.4337194 0 0 0 -0.7825,0.20346 l -3.2279,1.95239 -2.0659,0.28171 a 1.4337194,1.4337194 0 0 0 -1.2285,1.61199 l 0.012,0.09 -17.6733,10.6853 a 1.4337194,1.4337194 0 0 0 -0.4851,1.97196 l 21.0654,34.84169 c -0.2111,1.17231 -0.056,2.12483 0.031,2.5197 -0.6713,8.18542 1.2128,17.4947 1.3342,18.08404 l -0.7042,4.64034 c -2.7229,-0.88426 -3.7523,1.85066 -3.7523,1.85066 l -1.072,5.72414 c 0,0 14.9322,4.69176 21.7737,11.66736 0,0 4.5637,-1.56392 5.771,-4.51514 -0.3213,-1.0353 -0.7759,-1.99756 -1.3342,-2.89532 l 1.5181,-4.35864 c 3.4178,-2.06619 5.2446,-6.33688 6.3658,-10.07102 1.0558,-3.51607 1.3895,-6.34122 1.4516,-6.89792 0.8119,-0.75522 1.9027,-1.95272 3.2788,-3.56829 1.1944,-1.40239 2.5297,-3.03758 3.846,-4.71076 l 30.7256,-27.58774 a 1.4337194,1.4337194 0 0 0 0.1096,-2.02673 l -17.2585,-19.21868 0.8217,-3.08704 a 1.4337194,1.4337194 0 0 0 -1.0173,-1.75284 l -24.4889,-6.51057 a 1.4337194,1.4337194 0 0 0 -0.9665,-0.313 1.4337194,1.4337194 0 0 0 -0.1291,0.0118 l -0.024,0.004 -1.702,-0.45387 a 1.4337194,1.4337194 0 0 0 -0.4264,-0.0469 z m 1.076,3.18485 0.5712,0.1526 a 1.4337194,1.4337194 0 0 0 0.027,0.008 l 0.3247,0.086 a 1.4337194,1.4337194 0 0 0 0.02,0.004 l 23.597,6.27581 -0.051,0.19172 a 1.4337194,1.4337194 0 0 0 -0.1252,-0.0235 1.4337194,1.4337194 0 0 0 -0.1408,-0.0118 1.4337194,1.4337194 0 0 0 -0.02,0 1.4337194,1.4337194 0 0 0 -0.2113,0.008 1.4337194,1.4337194 0 0 0 -0.074,0.0118 1.4337194,1.4337194 0 0 0 -0.067,0.0157 1.4337194,1.4337194 0 0 0 -0.055,0.0118 1.4337194,1.4337194 0 0 0 -0.016,0.004 1.4337194,1.4337194 0 0 0 -0.1213,0.0391 1.4337194,1.4337194 0 0 0 -0.074,0.0313 1.4337194,1.4337194 0 0 0 -0.059,0.0234 1.4337194,1.4337194 0 0 0 -0.012,0.008 1.4337194,1.4337194 0 0 0 -0.1252,0.0705 1.4337194,1.4337194 0 0 0 -0.012,0.008 1.4337194,1.4337194 0 0 0 -0.094,0.0666 1.4337194,1.4337194 0 0 0 -0.078,0.0665 l -11.7848,10.57966 c -0.2307,-0.54334 -0.4028,-1.02777 -0.5086,-1.45157 -0.2479,-0.99072 -0.3241,-2.05089 -0.2309,-3.17703 -0.4602,0.79173 -0.9566,1.44833 -1.4828,1.97195 -0.5263,0.52379 -1.2693,1.07311 -2.2302,1.6472 -0.6298,0.37208 -1.5569,0.80088 -2.7857,1.28725 -1.2292,0.48667 -2.19,1.05786 -2.8798,1.70981 -0.5024,0.46733 -0.8684,1.05092 -1.0993,1.75675 -0.2882,0.88028 -0.2276,1.73636 0.1838,2.56667 0.4111,0.83078 1.0485,1.38501 1.9093,1.66676 0.061,0.02 0.1229,0.0338 0.184,0.0509 l -5.2508,4.71469 c -0.3162,-0.13566 -0.6323,-0.23428 -0.939,-0.28953 -0.6685,-0.1205 -1.2643,-0.13861 -1.9484,0.20345 -0.5268,0.26335 -0.5594,0.4189 -0.7239,0.61037 -0.1644,0.19146 -0.3307,0.40894 -0.5164,0.66513 -0.3714,0.51239 -0.8156,1.17852 -1.3225,1.96413 -0.3497,0.54202 -0.8165,1.32792 -1.2129,1.96413 l 9.4333,-35.48728 z m -3.1732,0.78253 -3.9517,14.86004 c -2.4862,-2.36382 -2.9019,-3.93399 -2.9696,-4.42123 0.047,0.59555 -0.057,2.85736 -3.451,6.95269 -3.2668,3.94131 -4.926,4.55538 -5.4346,4.64816 0.5167,-0.0184 2.2687,0.21916 6.3071,3.36485 0.9005,0.70152 1.6281,1.35486 2.2263,1.95238 l -2.9383,11.05309 a 1.4337194,1.4337194 0 0 0 0.5399,1.52591 0,0 0 0 0 0,0 1.4337194,1.4337194 0 0 0 0.1173,0.0782 1.4337194,1.4337194 0 0 0 0.035,0.0196 c -0.3324,0.55662 -0.6677,1.11384 -0.986,1.65111 l -6.0606,0.82556 -5.376,-39.52116 0.9039,-0.1252 a 1.4337194,1.4337194 0 0 0 0.035,-0.004 l 0.01,0 4.386,-0.59472 a 1.4337194,1.4337194 0 0 0 0.055,-0.0118 l 16.5503,-2.25365 z m -24.5397,5.14898 1.1424,8.40817 c -0.4186,0.10307 -0.8277,0.27203 -1.2129,0.51255 -1.9712,1.23065 -2.5589,3.84063 -1.3146,5.83369 0.6418,1.02817 1.6486,1.68608 2.7426,1.91717 0.268,0.0564 0.6012,0.16511 0.9548,0.3091 l 0.1252,0.94293 0.02,0.13694 c -0.2485,-0.0468 -0.5024,-0.0722 -0.7551,-0.0743 -0.7681,-0.007 -1.5427,0.19729 -2.2419,0.63383 -1.9715,1.23055 -2.5628,3.84455 -1.3185,5.8376 1.1578,1.85449 3.4954,2.5134 5.4032,1.60417 l 1.7842,13.10329 a 1.4337194,1.4337194 0 0 0 1.5103,1.24029 1.4337194,1.4337194 0 0 0 0.1017,-0.0118 l 4.2803,-0.58298 -5.9706,3.61133 -20.6311,-34.12569 15.3805,-9.29633 z m 51.7675,4.20995 0.1487,0.16434 16.8164,18.72569 -29.6732,26.64479 -12.7238,-14.17143 c 0.1251,-0.33277 0.2382,-0.64139 0.3835,-1.01727 0.9347,-2.41921 1.2357,-4.3379 1.0681,-5.91194 -0.093,-0.87398 -0.3557,-1.62698 -0.716,-2.26148 l 24.6963,-22.1727 z m -28.3233,22.75568 c 0.015,-8.6e-4 0.03,1.7e-4 0.051,0.004 0.2034,0.0367 0.4576,0.13696 0.6847,0.32083 a 1.4337194,1.4337194 0 0 0 0,0.004 c 0.01,0.004 0.011,0.008 0.016,0.0118 0.026,0.0223 0.052,0.0496 0.078,0.0744 -1.0263,2.31773 -2.0538,3.01432 -2.7663,3.23181 -0.2179,0.0665 -0.4173,0.0925 -0.5986,0.0939 0.3469,-0.55577 0.6811,-1.08867 0.986,-1.56113 0.4914,-0.76163 0.9201,-1.39869 1.2364,-1.835 0.1123,-0.15493 0.186,-0.24526 0.2621,-0.3404 0.018,-3.2e-4 0.032,-0.003 0.047,-0.004 z m 1.5181,2.60579 c -0.016,0.93959 -0.2578,2.23929 -0.9194,3.95172 -0.2558,0.66189 -0.4684,1.24057 -0.6691,1.78023 a 1.4337194,1.4337194 0 0 0 -0.031,0.0782 c 0,0.006 -0.019,0.0442 -0.047,0.12129 -0.072,0.19197 -0.1473,0.39705 -0.2112,0.57123 a 1.4337194,1.4337194 0 0 0 0.024,1.04076 c -1.5196,4.23392 -1.3559,4.30686 -4.8673,9.57413 a 1.0580725,1.0580725 0 0 0 -0.1135,0.94684 c 0,0 0.9988,2.79382 1.5612,5.95107 0.281,1.57863 0.4466,3.24179 0.3403,4.62469 -0.1063,1.3829 -0.4922,2.4173 -1.0798,2.94619 a 1.0583084,1.0583084 0 0 0 1.4163,1.57286 c 1.2009,-1.08087 1.644,-2.6858 1.7724,-4.35472 0.1284,-1.66893 -0.064,-3.47121 -0.3639,-5.15681 -0.5193,-2.91637 -1.272,-5.14648 -1.4946,-5.79064 3.0555,-4.61146 3.2785,-5.36579 4.6443,-9.13201 l 2.9892,3.32963 c -1.3037,1.00529 -2.7896,2.13924 -4.3234,4.50339 a 0.97042148,0.97042148 0 1 0 1.6276,1.05641 c 1.4165,-2.18341 2.6519,-3.07639 3.9948,-4.11214 l 3.49,3.88521 -4.3155,4.64817 a 0.97042148,0.97042148 0 1 0 1.4241,1.31854 l 4.1904,-4.51514 3.6348,4.04563 c -0.7629,0.94042 -1.5085,1.84546 -2.2027,2.66056 -1.5151,1.77871 -2.8359,3.19644 -3.361,3.64655 l -0.3443,0.29344 -0.047,0.44995 c 0,0 -0.3298,3.24559 -1.4241,6.89008 -1.0944,3.6445 -3.0168,7.54849 -5.6655,8.96377 l -0.3874,0.20737 -0.1447,0.41474 -1.162,3.34135 c -4.8396,-5.31895 -13.4055,-7.80855 -17.5715,-9.01071 l 0.7825,-5.16072 0.027,-0.19954 -0.039,-0.19563 c 0,0 -2.015,-9.86575 -1.3226,-17.82971 l 0.01,-0.0978 a 1.4337194,1.4337194 0 0 0 0.7278,-0.20737 l 5.0198,-3.03617 a 1.0580725,1.0580725 0 0 0 1.9955,0.46168 c 0,0 0.6269,-1.08271 1.4985,-2.57449 l 0.3639,-0.21911 a 1.4337194,1.4337194 0 0 0 0.493,-0.50472 c 0.3979,-0.67899 0.803,-1.36646 1.2716,-2.15975 a 1.4337194,1.4337194 0 0 0 0.031,-0.0626 c 0.7104,-1.20196 1.4808,-2.48574 2.2498,-3.76392 0.522,-0.86782 1.0392,-1.7194 1.5415,-2.53928 0.087,0.019 0.1876,0.0411 0.3012,0.0587 0.4299,0.0667 1.034,0.0928 1.7099,-0.11346 0.9697,-0.296 2.0155,-1.05513 2.9775,-2.59796 z" id="path3022" inkscape:connector-curvature="0" inkscape:export-filename="/home/jcd/Pictures/playingcards.png" inkscape:export-xdpi="317.56" inkscape:export-ydpi="317.56"/>
    <path id="path3831" d="m -1501.076,758.41246 c 1.4643,-1.62572 1.4883,-4.12819 -0.013,-5.78407 -1.203,-1.32724 -3.0427,-1.73244 -4.6327,-1.17334 0.7123,-1.52745 0.4893,-3.39804 -0.7135,-4.72515 -1.501,-1.656 -3.9939,-1.87748 -5.7552,-0.57941 -0.1174,0.0864 -0.2316,0.17988 -0.342,0.27994 -3.8859,3.52209 -1.3975,9.95335 -2.7399,13.68096 h 0 c 3.8411,-0.97048 9.9976,2.13616 13.8837,-1.38603 0.1103,-0.10007 0.2145,-0.20456 0.3121,-0.3129 z" inkscape:connector-curvature="0" style="fill:#000000" inkscape:export-filename="/home/jcd/Pictures/playingcards.png" inkscape:export-xdpi="317.56" inkscape:export-ydpi="317.56"/>
  </g>
</svg>