<svg xmlns="http://www.w3.org/2000/svg" xmlns:xlink="http://www.w3.org/1999/xlink" version="1.1" id="Layer_1" x="0px" y="0px" width="100px" height="100px" viewBox="0 0 100 100" enable-background="new 0 0 100 100" xml:space="preserve">
<g id="Captions">
</g>
<g>
	<g>
		<path d="M49.965,16c6.373,0,11.541,5.165,11.541,11.546c0,6.377-4.062,11.544-11.541,11.544c-6.377,0-11.55-5.167-11.55-11.544    C38.416,21.165,43.588,16,49.965,16z"/>
	</g>
</g>
<path d="M94.188,73.443l-13.012-0.768c0.047,0.52,0.02,1.033-0.068,1.542L94.188,73.443z"/>
<path d="M18.131,72.705L5.5,73.443l12.81,0.765C18.193,73.721,18.136,73.215,18.131,72.705z"/>
<path d="M79.736,71.632c-0.004-0.01-0.008-0.019-0.012-0.024c-0.029-0.129-0.037-0.254-0.078-0.379l-4.07-13.092l-1.814-6.259  C72.18,47.534,68.195,42,62.211,42H37.525c-5.985,0-9.971,5.532-11.552,9.878l-1.614,5.425l-4.798,13.381  c-1.022,2.834,0.446,5.998,3.279,7.021c0.381,0.137,0.767,0.232,1.153,0.281c0.116,0.021,0.234,0,0.352,0.011  C24.46,78.004,24.576,78,24.689,78c0.009,0,0.016,0,0.025,0c0.008,0,0.017,0.036,0.024,0.036c0.082,0,0.163-0.002,0.245-0.005  c0.2-0.012,0.398-0.014,0.594-0.047c0.053-0.01,0.104-0.021,0.155-0.031c0.48-0.096,0.945-0.241,1.38-0.456l21.241-8.263  c2.495-0.971,3.729-3.78,2.76-6.274c-0.746-1.916-2.578-3.09-4.518-3.09c-0.585,0-1.179,0.106-1.756,0.331L33.354,64.67l0.552-1.531  l6.103-2.371l-1.78-5.906c-0.089-0.293,0.079-0.604,0.373-0.693l1.58-0.477l0.981,6.629l0.869-0.338l-1.057-7.139  c-0.045-0.303,0.167-0.588,0.47-0.633l1.663-0.246l0.008,7.596l0.909-0.354l-0.01-7.458c0-0.306,0.25-0.558,0.557-0.558l2.027-0.002  l-1.102,7.562c0.306-0.057,0.618-0.077,0.931-0.086l1.086-7.46c0.041-0.274,0.281-0.478,0.552-0.478c0.027,0,0.054,0.002,0.08,0.006  l1.877,0.273l-2.318,7.76c0.3,0.057,0.592,0.135,0.877,0.235L51.1,50.58c0.072-0.24,0.295-0.397,0.535-0.397  c0.053,0,0.107,0.007,0.158,0.022l7.629,2.273c0.293,0.088,0.461,0.398,0.373,0.692l-3.543,11.863  c-0.072,0.239-0.295,0.396-0.537,0.396c-0.051,0-0.104-0.006-0.156-0.021l-2.93-0.873c0.057,2.404-1.398,4.628-3.836,5.576  L40.732,73h16.745l10.187-3.564l0.358,1.146l-13.475,4.676c-2.527,0.877-3.867,3.637-2.988,6.166  c0.695,2.002,2.572,3.256,4.578,3.256c0.527,0,1.064-0.089,1.59-0.271l18.226-6.331c0.034-0.012,0.071-0.014,0.106-0.025  c0.062-0.017,0.109-0.05,0.166-0.068l0.523-0.183C79.277,76.922,80.615,74.16,79.736,71.632z"/>
</svg>