<svg xmlns="http://www.w3.org/2000/svg" xmlns:xlink="http://www.w3.org/1999/xlink" version="1.0" id="Layer_1" x="0px" y="0px" width="100px" height="100px" viewBox="0 0 100 100" enable-background="new 0 0 100 100" xml:space="preserve">
<g>
	<circle fill="#000000" cx="46.436" cy="16.129" r="7.451"/>
	<path fill="#000000" d="M57.747,3.738c0,0,0.05,17.16-0.013,18.033c0.148,3.234-2.59,3.363-2.59,3.363   c1.391,0.001-16.7-0.007-16.7-0.007c-5.276,0-8.581,4.302-8.581,9.669v22.877c0,4.445,5.875,4.445,5.875,0V35.409h1.871   l-0.008,60.415c0,2.305,1.871,4.177,4.177,4.177c2.31,0,4.179-1.872,4.179-4.177l0.003-35.045h1.86L47.81,95.824   c0,2.305,1.869,4.177,4.176,4.177c2.308,0,4.177-1.872,4.177-4.177l0.022-61.428l0.021-1.813c0,0,7.118-2.162,7.294-7.666   c0-0.065,0.065-3.057,0.065-3.057l0.012-18.122C63.301-1.378,57.797-1.116,57.747,3.738z M39.434,25.969h2.386l3.695,8.409   c-0.752,0.195-1.398,0.648-1.827,1.27L39.434,25.969z M46.314,39.855c-1.327,0-2.402-1.075-2.402-2.402s1.075-2.402,2.402-2.402   s2.402,1.076,2.402,2.402S47.641,39.855,46.314,39.855z M48.94,35.648c-0.429-0.623-1.076-1.076-1.827-1.271l3.696-8.408h2.385   L48.94,35.648z"/>
	<path fill="#000000" d="M45.515,34.378l-3.695-8.409h-2.386l4.254,9.679C44.117,35.026,44.763,34.573,45.515,34.378z"/>
	<path fill="#000000" d="M47.113,34.377c0.751,0.195,1.398,0.648,1.827,1.271l4.253-9.679h-2.385L47.113,34.377z"/>
	<circle fill="#000000" cx="46.314" cy="37.453" r="2.402"/>
</g>
</svg>